<svg width="254" height="70" viewBox="0 0 254 70" fill="none" xmlns="http://www.w3.org/2000/svg">
<circle cx="35" cy="35" r="35" fill="#AED3FF"/>
<path d="M61.3483 28C65.0132 28 54.1833 41.2263 54.1833 41.2263L51.8 32.4578C51.8 32.4578 57.6833 28 61.3483 28Z" fill="#0075FF"/>
<path d="M11.4177 45.2252C7.83255 45.9857 15.6822 30.8 15.6822 30.8L19.8332 38.8831C19.8332 38.8831 15.0029 44.4647 11.4177 45.2252Z" fill="#0075FF"/>
<path d="M56 36.4C56 47.998 46.598 53.2 35 53.2C23.402 53.2 14 47.998 14 36.4C14 24.802 23.402 15.4 35 15.4C46.598 15.4 56 24.802 56 36.4Z" fill="#0075FF"/>
<path d="M54.5 38.8889C54.5 43.2568 52.465 46.3746 49.0621 48.4725C45.5837 50.6169 40.6419 51.7 35 51.7C29.3581 51.7 24.4163 50.6169 20.9379 48.4725C17.535 46.3746 15.5 43.2568 15.5 38.8889C15.5 35.4943 15.7645 32.6241 16.7361 30.2999C17.6734 28.0578 19.3051 26.2383 22.2801 24.9908C24.5521 24.0381 26.5402 24.4617 28.5691 25.2673C29.0816 25.4708 29.5849 25.6939 30.0999 25.9245C30.1471 25.9456 30.1944 25.9668 30.242 25.9882C30.7036 26.1951 31.1809 26.409 31.649 26.6002C32.6636 27.0147 33.8113 27.4 35 27.4C36.1887 27.4 37.3364 27.0147 38.351 26.6002C38.8191 26.409 39.2964 26.1951 39.758 25.9882C39.8056 25.9668 39.8529 25.9456 39.9001 25.9245C40.4151 25.6939 40.9184 25.4708 41.4309 25.2673C43.4598 24.4617 45.4479 24.0381 47.7199 24.9908C50.6949 26.2383 52.3266 28.0578 53.2639 30.2999C54.2355 32.6241 54.5 35.4943 54.5 38.8889Z" fill="white" stroke="#0075FF" stroke-width="3" stroke-linejoin="round"/>
<circle cx="25.2" cy="35" r="2.8" fill="black"/>
<circle cx="44.8" cy="35" r="2.8" fill="black"/>
<path d="M35 35C37.3196 35 38.5 36.4 40.6 37.8C40.6 37.8 36.8338 41.3 35 41.3C33.1662 41.3 29.4 37.8 29.4 37.8C31.5 36.4 32.6804 35 35 35Z" fill="#FF9900"/>
<path d="M81.664 39V14.52H90.124L94.444 32.376L98.764 14.52H107.224V39H102.256V20.064H101.716L96.928 37.92H91.96L87.172 20.064H86.632V39H81.664ZM117.642 33.24C118.362 34.488 119.694 35.112 121.638 35.112C123.582 35.112 124.902 34.488 125.598 33.24C126.318 31.968 126.678 29.856 126.678 26.904C126.678 23.928 126.318 21.768 125.598 20.424C124.878 19.08 123.558 18.408 121.638 18.408C119.718 18.408 118.398 19.08 117.678 20.424C116.958 21.768 116.598 23.928 116.598 26.904C116.598 29.856 116.946 31.968 117.642 33.24ZM129.486 36.408C127.974 38.424 125.358 39.432 121.638 39.432C117.918 39.432 115.29 38.424 113.754 36.408C112.242 34.368 111.486 31.188 111.486 26.868C111.486 22.548 112.242 19.344 113.754 17.256C115.29 15.144 117.918 14.088 121.638 14.088C125.358 14.088 127.974 15.144 129.486 17.256C131.022 19.344 131.79 22.548 131.79 26.868C131.79 31.188 131.022 34.368 129.486 36.408ZM151.567 38.604C149.023 39.156 146.731 39.432 144.691 39.432C142.651 39.432 141.019 39.18 139.795 38.676C138.571 38.172 137.611 37.368 136.915 36.264C136.219 35.16 135.739 33.864 135.475 32.376C135.211 30.888 135.079 29.016 135.079 26.76C135.079 22.032 135.739 18.744 137.059 16.896C138.403 15.024 140.863 14.088 144.439 14.088C146.503 14.088 148.891 14.412 151.603 15.06L151.459 19.02C149.083 18.66 147.103 18.48 145.519 18.48C143.959 18.48 142.843 18.696 142.171 19.128C141.499 19.536 140.995 20.328 140.659 21.504C140.347 22.68 140.191 24.684 140.191 27.516C140.191 30.348 140.515 32.316 141.163 33.42C141.835 34.5 143.155 35.04 145.123 35.04C147.115 35.04 149.227 34.872 151.459 34.536L151.567 38.604ZM160.566 39H155.598V14.52H160.566V25.284L163.878 24.924L167.91 14.52H173.562L168.234 26.796L173.706 39H167.982L163.878 29.244L160.566 29.604V39ZM176.937 39V14.52H192.777V18.84H181.905V24.564H190.617V28.812H181.905V34.68H192.777V39H176.937ZM196.871 39V14.52H205.259L211.163 34.68H211.523V14.52H216.491V39H208.319L202.199 18.84H201.839V39H196.871ZM230.076 39H221.832V14.52H230.076C232.188 14.52 233.928 14.748 235.296 15.204C236.664 15.636 237.72 16.368 238.464 17.4C239.232 18.408 239.76 19.608 240.048 21C240.336 22.368 240.48 24.156 240.48 26.364C240.48 28.572 240.348 30.408 240.084 31.872C239.82 33.312 239.316 34.608 238.572 35.76C237.852 36.888 236.796 37.716 235.404 38.244C234.012 38.748 232.236 39 230.076 39ZM235.296 29.28C235.344 28.512 235.368 27.456 235.368 26.112C235.368 24.744 235.32 23.652 235.224 22.836C235.128 22.02 234.9 21.276 234.54 20.604C234.18 19.932 233.64 19.476 232.92 19.236C232.224 18.972 231.276 18.84 230.076 18.84H226.8V34.68H230.076C231.876 34.68 233.184 34.224 234 33.312C234.696 32.568 235.128 31.224 235.296 29.28Z" fill="black"/>
<path d="M84.04 52.096V56H82.264V45.04H86.424C88.8987 45.04 90.136 46.2027 90.136 48.528C90.136 50.0853 89.5387 51.1413 88.344 51.696L90.152 56H88.2L86.616 52.096H84.04ZM88.312 48.544C88.312 47.232 87.6827 46.576 86.424 46.576H84.04V50.56H86.456C87.096 50.56 87.5653 50.3787 87.864 50.016C88.1627 49.6427 88.312 49.152 88.312 48.544ZM92.3146 56V45.04H99.2266V46.592H94.0906V49.696H98.2666V51.232H94.0906V54.432H99.2266V56H92.3146ZM104.534 46.416C103.18 46.416 102.502 46.8907 102.502 47.84C102.502 48.3307 102.662 48.6827 102.982 48.896C103.302 49.0987 104.006 49.3547 105.094 49.664C106.193 49.9627 106.966 50.3253 107.414 50.752C107.862 51.168 108.086 51.8293 108.086 52.736C108.086 53.888 107.756 54.752 107.094 55.328C106.444 55.8933 105.553 56.176 104.422 56.176C103.516 56.176 102.513 56.0693 101.414 55.856L100.838 55.744L101.014 54.32C102.454 54.512 103.553 54.608 104.31 54.608C105.633 54.608 106.294 54.0213 106.294 52.848C106.294 52.3893 106.145 52.0533 105.846 51.84C105.548 51.616 104.876 51.376 103.83 51.12C102.785 50.8533 102.006 50.4907 101.494 50.032C100.982 49.5733 100.726 48.848 100.726 47.856C100.726 46.864 101.046 46.1173 101.686 45.616C102.337 45.104 103.233 44.848 104.374 44.848C105.196 44.848 106.166 44.944 107.286 45.136L107.846 45.232L107.702 46.672C106.209 46.5013 105.153 46.416 104.534 46.416ZM109.11 46.624V45.04H117.11V46.624H114.022V56H112.23V46.624H109.11ZM117.199 55.856L121.759 44.576L123.295 45.136L118.719 56.4L117.199 55.856ZM129.497 51.808V50.24H132.617V55.808C132.329 55.8827 131.742 55.9627 130.857 56.048C129.982 56.1333 129.347 56.176 128.953 56.176C127.289 56.176 126.142 55.7173 125.513 54.8C124.883 53.8827 124.569 52.448 124.569 50.496C124.569 48.5333 124.889 47.104 125.529 46.208C126.179 45.312 127.299 44.864 128.889 44.864C129.827 44.864 130.883 44.9707 132.057 45.184L132.617 45.296L132.553 46.704C131.262 46.5333 130.105 46.448 129.081 46.448C128.057 46.448 127.353 46.736 126.969 47.312C126.595 47.888 126.409 48.9547 126.409 50.512C126.409 52.0693 126.585 53.1467 126.937 53.744C127.299 54.3307 128.025 54.624 129.113 54.624C129.891 54.624 130.473 54.576 130.857 54.48V51.808H129.497ZM134.797 56V48H136.525V48.96C137.432 48.3733 138.339 47.9947 139.245 47.824V49.568C138.328 49.7493 137.544 49.984 136.893 50.272L136.541 50.416V56H134.797ZM146.658 50.464V54.112C146.669 54.3467 146.728 54.5227 146.834 54.64C146.952 54.7467 147.128 54.816 147.362 54.848L147.314 56.176C146.397 56.176 145.688 55.9787 145.186 55.584C144.333 55.9787 143.474 56.176 142.61 56.176C141.021 56.176 140.226 55.328 140.226 53.632C140.226 52.8213 140.44 52.2347 140.866 51.872C141.304 51.5093 141.97 51.2907 142.866 51.216L144.93 51.04V50.464C144.93 50.0373 144.834 49.7387 144.642 49.568C144.461 49.3973 144.189 49.312 143.826 49.312C143.144 49.312 142.29 49.3547 141.266 49.44L140.754 49.472L140.69 48.24C141.853 47.9627 142.92 47.824 143.89 47.824C144.872 47.824 145.576 48.0373 146.002 48.464C146.44 48.88 146.658 49.5467 146.658 50.464ZM143.074 52.448C142.338 52.512 141.97 52.912 141.97 53.648C141.97 54.384 142.296 54.752 142.946 54.752C143.48 54.752 144.045 54.6667 144.642 54.496L144.93 54.4V52.272L143.074 52.448ZM149.008 59.44V48H150.736V48.496C151.472 48.048 152.16 47.824 152.8 47.824C153.856 47.824 154.629 48.1493 155.12 48.8C155.611 49.44 155.856 50.5227 155.856 52.048C155.856 53.5627 155.573 54.6293 155.008 55.248C154.453 55.8667 153.541 56.176 152.272 56.176C151.835 56.176 151.328 56.128 150.752 56.032V59.44H149.008ZM152.496 49.376C151.995 49.376 151.493 49.488 150.992 49.712L150.752 49.824V54.544C151.179 54.6293 151.648 54.672 152.16 54.672C152.885 54.672 153.387 54.464 153.664 54.048C153.941 53.632 154.08 52.9227 154.08 51.92C154.08 50.224 153.552 49.376 152.496 49.376ZM159.506 56H157.762V44.672H159.506V48.416C160.295 48.0213 161.026 47.824 161.698 47.824C162.764 47.824 163.49 48.128 163.874 48.736C164.268 49.3333 164.466 50.3253 164.466 51.712V56H162.722V51.76C162.722 50.896 162.631 50.2827 162.45 49.92C162.268 49.5573 161.884 49.376 161.298 49.376C160.786 49.376 160.274 49.4613 159.762 49.632L159.506 49.728V56ZM170.848 56.176C169.184 56.176 168.021 55.728 167.36 54.832C166.709 53.936 166.384 52.5227 166.384 50.592C166.384 48.6507 166.715 47.2107 167.376 46.272C168.048 45.3333 169.205 44.864 170.848 44.864C172.491 44.864 173.643 45.3333 174.304 46.272C174.965 47.2 175.296 48.6347 175.296 50.576C175.296 51.856 175.157 52.8907 174.88 53.68C174.613 54.4693 174.171 55.072 173.552 55.488L174.896 57.648L173.248 58.416L171.824 56.08C171.621 56.144 171.296 56.176 170.848 56.176ZM168.768 53.696C169.131 54.3147 169.824 54.624 170.848 54.624C171.872 54.624 172.56 54.32 172.912 53.712C173.275 53.0933 173.456 52.0533 173.456 50.592C173.456 49.1307 173.269 48.0693 172.896 47.408C172.533 46.7467 171.851 46.416 170.848 46.416C169.845 46.416 169.157 46.7467 168.784 47.408C168.411 48.0693 168.224 49.1253 168.224 50.576C168.224 52.0267 168.405 53.0667 168.768 53.696ZM183.668 56H177.524V45.04H179.3V54.416H183.668V56ZM188.953 56V45.04H192.041L194.489 53.6L196.937 45.04H200.041V56H198.249V47.008H198.009L195.417 55.552H193.561L190.969 47.008H190.729V56H188.953ZM202.837 48.864C203.392 48.1707 204.309 47.824 205.589 47.824C206.869 47.824 207.781 48.1707 208.325 48.864C208.88 49.5573 209.157 50.5973 209.157 51.984C209.157 53.3707 208.891 54.416 208.357 55.12C207.824 55.824 206.901 56.176 205.589 56.176C204.277 56.176 203.355 55.824 202.821 55.12C202.288 54.416 202.021 53.3707 202.021 51.984C202.021 50.5973 202.293 49.5573 202.837 48.864ZM204.149 54.064C204.395 54.4907 204.875 54.704 205.589 54.704C206.304 54.704 206.784 54.4907 207.029 54.064C207.275 53.6373 207.397 52.9387 207.397 51.968C207.397 50.9973 207.264 50.3093 206.997 49.904C206.741 49.4987 206.272 49.296 205.589 49.296C204.907 49.296 204.432 49.4987 204.165 49.904C203.909 50.3093 203.781 50.9973 203.781 51.968C203.781 52.9387 203.904 53.6373 204.149 54.064ZM214.042 47.824C214.607 47.824 215.274 47.8987 216.042 48.048L216.442 48.128L216.378 49.504C215.535 49.4187 214.911 49.376 214.506 49.376C213.695 49.376 213.151 49.5573 212.874 49.92C212.596 50.2827 212.458 50.9653 212.458 51.968C212.458 52.9707 212.591 53.664 212.858 54.048C213.124 54.432 213.679 54.624 214.522 54.624L216.394 54.496L216.442 55.888C215.364 56.08 214.554 56.176 214.01 56.176C212.794 56.176 211.935 55.8507 211.434 55.2C210.943 54.5387 210.698 53.4613 210.698 51.968C210.698 50.4747 210.959 49.4133 211.482 48.784C212.004 48.144 212.858 47.824 214.042 47.824ZM220.032 56H218.288V44.672H220.032V51.216L221.024 51.12L222.912 48H224.864L222.56 51.744L224.992 56H223.024L221.072 52.624L220.032 52.736V56ZM229.372 56L232.076 45.04H235.612L238.332 56H236.54L235.948 53.648H231.74L231.148 56H229.372ZM233.452 46.528L232.092 52.08H235.596L234.252 46.528H233.452ZM244.07 52.592H241.83V56H240.054V45.04H244.07C246.555 45.04 247.798 46.2667 247.798 48.72C247.798 49.9787 247.483 50.9387 246.854 51.6C246.235 52.2613 245.307 52.592 244.07 52.592ZM241.83 51.056H244.054C245.334 51.056 245.974 50.2773 245.974 48.72C245.974 47.9733 245.819 47.4293 245.51 47.088C245.201 46.7467 244.715 46.576 244.054 46.576H241.83V51.056ZM249.667 56V45.04H251.443V56H249.667Z" fill="#454545"/>
</svg>
