<svg xmlns="http://www.w3.org/2000/svg" xmlns:cc="http://web.resource.org/cc/" xmlns:svg="http://www.w3.org/2000/svg" xmlns:xlink="http://www.w3.org/1999/xlink" id="svg2046" version="1.0" viewBox="0 0 159.61 159.61"><g id="layer1" transform="translate(-311.62 -429.7)"><g id="g2100" transform="matrix(.9 0 0 .9 170.44 -31.113)"><path id="path2174" fill="red" fill-rule="evenodd" stroke="#cb0000" stroke-width="20.128" d="m634.29 559.51a250 250 0 1 1 -500 0 250 250 0 1 1 500 0z" transform="matrix(.30686 0 0 .30686 127.62 429)"/><path id="text2705" fill="#fff" d="m267.42 640.04l-21.68-21.68-21.88 21.88-17.87-17.87 21.88-21.89-21.68-21.68 17.4-17.4 21.68 21.68 21.95-21.95 17.88 17.88-21.96 21.95 21.68 21.68-17.4 17.4" opacity=".735"/><path id="text2713" fill="#fff" d="m267.3 637.01l-21.59-21.59-21.76 21.76-14.9-14.91 21.76-21.75-21.59-21.59 14.51-14.51 21.58 21.59 21.82-21.81 14.9 14.9-21.81 21.81 21.58 21.59-14.5 14.51"/></g></g><metadata/></svg>