<svg xmlns="http://www.w3.org/2000/svg" xmlns:ns1="http://sozi.baierouge.fr" xmlns:svg="http://www.w3.org/2000/svg" xmlns:xlink="http://www.w3.org/1999/xlink" id="svg2" version="1.1" viewBox="0 0 392.43 293.04"><defs id="defs4"><linearGradient id="linearGradient3838" x1="634.97" x2="389.52" y1="631.64" y2="484.49" gradientUnits="userSpaceOnUse"><stop id="stop3834" offset="0" style="stop-color:navy"/><stop id="stop3836" offset="1" style="stop-color:#4dc149"/></linearGradient><filter id="filter3848" color-interpolation-filters="sRGB"><feGaussianBlur id="feGaussianBlur3850" stdDeviation=".82"/></filter><filter id="filter3852" color-interpolation-filters="sRGB"><feGaussianBlur id="feGaussianBlur3854" stdDeviation="1.404"/></filter><radialGradient id="radialGradient3872" cx="539.69" cy="573.48" r="92.316" gradientTransform="matrix(.59830 1.4589 -1.4017 .57484 1052 -556.35)" gradientUnits="userSpaceOnUse"><stop id="stop3866" offset="0" style="stop-color:#64b668"/><stop id="stop3868" offset="1" style="stop-color:#000089"/></radialGradient><linearGradient id="linearGradient3880" x1="437.5" x2="441.79" y1="567.07" y2="623.33" gradientTransform="matrix(1.01 0 0 1.01 -4.45 -5.9654)" gradientUnits="userSpaceOnUse"><stop id="stop3876" offset="0" style="stop-color:navy"/><stop id="stop3878" offset="1" style="stop-color:#005900"/></linearGradient><filter id="filter3882" color-interpolation-filters="sRGB"><feGaussianBlur id="feGaussianBlur3884" stdDeviation=".612"/></filter><filter id="filter3886" color-interpolation-filters="sRGB"><feGaussianBlur id="feGaussianBlur3888" stdDeviation=".208"/></filter><linearGradient id="linearGradient3896" x1="503.69" x2="382.36" y1="665.51" y2="536.71" gradientUnits="userSpaceOnUse"><stop id="stop3892" offset="0" style="stop-color:red"/><stop id="stop3894" offset="1" style="stop-color:#ff3537"/></linearGradient><filter id="filter3898" color-interpolation-filters="sRGB"><feGaussianBlur id="feGaussianBlur3900" stdDeviation=".688"/></filter><linearGradient id="linearGradient3908" x1="319.87" x2="459.97" y1="631.94" y2="748.04" gradientUnits="userSpaceOnUse"><stop id="stop3904" offset="0" style="stop-color:red"/><stop id="stop3906" offset="1" style="stop-color:#a20000"/></linearGradient><filter id="filter3910" color-interpolation-filters="sRGB"><feGaussianBlur id="feGaussianBlur3912" stdDeviation=".705"/></filter></defs><g id="layer2" transform="translate(-312.02 -458.02)"><path id="path3769" d="m361.55 582.99-0.3189 52.177 167.41-24.24 0.12626-53.004z" style="filter:url(#filter3882);fill:url(#linearGradient3880)"/><path id="path2999" d="m359.19 586.75c-21.51-61.92 29.22-124.95 113.3-140.78 84.082-15.834 169.67 21.522 191.18 83.437 21.503 61.915-29.228 124.94-113.31 140.78-15.043 2.8328-30.573 4.0083-46.085 3.488l7.1506-115.59z" transform="matrix(1.1001 0 0 .84590 -34.817 86.701)" style="filter:url(#filter3852);fill:url(#linearGradient3838)"/><path id="rect3771" d="m519.14 708.32c17.065 0.44011 34.171-0.539 50.721-2.9353 74.561-10.796 125.24-47.545 129.72-88.817h0.2525v-2.9353-6.2809-46.239c-2.3396 42.453-53.653 80.701-129.97 91.752-16.55 2.3963-33.656 3.3754-50.721 2.9353z" style="filter:url(#filter3848);fill:url(#radialGradient3872)"/><path id="path3813" d="m356.44 610.74h0.15782c-0.0187 8.0612 1.738 16.258 5.4288 24.429l0.15781-0.0315v-24.398-24.461-3.6612l-0.15781 0.0315c-3.7744-8.3563-5.5225-16.735-5.4217-24.973z" style="filter:url(#filter3886);fill:#339c34"/><path id="path3824" d="m505.21 673.7c-69.43-2.03-128.8-37.38-146.02-86.95l152.24-28.67z" transform="matrix(1.1001 0 0 .84590 -81.32 129.98)" style="filter:url(#filter3898);fill:url(#linearGradient3896)"/><path id="path3826" d="m314.09 627.03 0.5625 49.531c18.756 41.512 83.443 71.116 159.06 72.812l0.0625-49.938-0.15625-0.0625c-75.01-1.7-139.24-30.86-158.53-71.87l-1-0.46875z" style="filter:url(#filter3910);fill:url(#linearGradient3908)"/></g><metadata/></svg>